<?xml version="1.0" encoding="UTF-8" standalone="no"?>
<!-- Created with Inkscape (http://www.inkscape.org/) -->

<svg
   width="135.6866mm"
   height="38.668308mm"
   viewBox="0 0 135.6866 38.668308"
   version="1.1"
   id="svg1"
   xml:space="preserve"
   inkscape:version="1.4.2 (ebf0e940d0, 2025-05-08)"
   sodipodi:docname="supp_projection.svg"
   inkscape:export-filename="supp_projection.pdf"
   inkscape:export-xdpi="96"
   inkscape:export-ydpi="96"
   xmlns:inkscape="http://www.inkscape.org/namespaces/inkscape"
   xmlns:sodipodi="http://sodipodi.sourceforge.net/DTD/sodipodi-0.dtd"
   xmlns:xlink="http://www.w3.org/1999/xlink"
   xmlns="http://www.w3.org/2000/svg"
   xmlns:svg="http://www.w3.org/2000/svg"><sodipodi:namedview
     id="namedview1"
     pagecolor="#ffffff"
     bordercolor="#000000"
     borderopacity="0.25"
     inkscape:showpageshadow="2"
     inkscape:pageopacity="0.0"
     inkscape:pagecheckerboard="0"
     inkscape:deskcolor="#d1d1d1"
     inkscape:document-units="mm"
     showguides="true"
     inkscape:zoom="3.2885275"
     inkscape:cx="331.60738"
     inkscape:cy="84.536316"
     inkscape:window-width="2560"
     inkscape:window-height="1371"
     inkscape:window-x="0"
     inkscape:window-y="32"
     inkscape:window-maximized="1"
     inkscape:current-layer="layer1"><sodipodi:guide
       position="-33.921647,214.32334"
       orientation="1,0"
       id="guide1"
       inkscape:locked="false" /><sodipodi:guide
       position="135.6866,206.64836"
       orientation="1,0"
       id="guide2"
       inkscape:locked="false" /><sodipodi:guide
       position="-1.3480612e-06,287.7746"
       orientation="1,0"
       id="guide3"
       inkscape:locked="false" /><sodipodi:guide
       position="33.921648,282.21615"
       orientation="1,0"
       id="guide4"
       inkscape:locked="false" /><sodipodi:guide
       position="67.843296,271.42622"
       orientation="1,0"
       id="guide5"
       inkscape:locked="false" /><sodipodi:guide
       position="101.76495,265.86776"
       orientation="1,0"
       id="guide6"
       inkscape:locked="false" /><sodipodi:guide
       position="64.731986,260.62889"
       orientation="0,1"
       id="guide7"
       inkscape:locked="false"
       inkscape:label=""
       inkscape:color="rgb(0,134,229)" /><sodipodi:guide
       position="-31.319075,294.55054"
       orientation="0,-1"
       id="guide8"
       inkscape:locked="false" /></sodipodi:namedview><defs
     id="defs1"><rect
       x="-7.1139816e-06"
       y="129.79459"
       width="421.51532"
       height="54.539089"
       id="rect1" /><mask
       maskUnits="userSpaceOnUse"
       x="0"
       y="0"
       width="1"
       height="1"
       id="mask92"><image
         width="1"
         height="1.3333333"
         preserveAspectRatio="none"
         xlink:href="../../../DCCVT_3dv_img0.png"
         id="image92" /></mask><clipPath
       clipPathUnits="userSpaceOnUse"
       id="clipPath93"><path
         d="M 0.422,0.664 H 57.871 V 76.266 H 0.422 Z"
         transform="matrix(0.01740654,0,0,0.01322741,-0.00733829,-0.00878035)"
         id="path93" /></clipPath><clipPath
       clipPathUnits="userSpaceOnUse"
       id="clipPath94"><path
         d="M 0,0 H 231 V 85 H 0 Z"
         transform="matrix(1.3333333,0,0,1.3333333,400,325.33333)"
         id="path94" /></clipPath><mask
       maskUnits="userSpaceOnUse"
       x="0"
       y="0"
       width="1"
       height="1"
       id="mask94"><image
         width="1"
         height="1.3333333"
         preserveAspectRatio="none"
         xlink:href="../../../DCCVT_3dv_img2.png"
         id="image94" /></mask><clipPath
       clipPathUnits="userSpaceOnUse"
       id="clipPath95"><path
         d="M 57.871,0.664 H 115.32 V 76.266 H 57.871 Z"
         transform="matrix(0.01740655,0,0,0.01322741,-1.0073395,-0.00878095)"
         id="path95" /></clipPath><clipPath
       clipPathUnits="userSpaceOnUse"
       id="clipPath96"><path
         d="M 0,0 H 231 V 85 H 0 Z"
         transform="matrix(1.3333333,0,0,1.3333333,400,325.33333)"
         id="path96" /></clipPath><mask
       maskUnits="userSpaceOnUse"
       x="0"
       y="0"
       width="1"
       height="1"
       id="mask96"><image
         width="1"
         height="1.3333333"
         preserveAspectRatio="none"
         xlink:href="../../../DCCVT_3dv_img4.png"
         id="image96" /></mask><clipPath
       clipPathUnits="userSpaceOnUse"
       id="clipPath97"><path
         d="m 115.32,0.664 h 57.449 V 76.266 H 115.32 Z"
         transform="matrix(0.01740654,0,0,0.0132274,-2.0073375,-0.00877975)"
         id="path97" /></clipPath><clipPath
       clipPathUnits="userSpaceOnUse"
       id="clipPath98"><path
         d="M 0,0 H 231 V 85 H 0 Z"
         transform="matrix(1.3333333,0,0,1.3333333,400,325.33333)"
         id="path98" /></clipPath><mask
       maskUnits="userSpaceOnUse"
       x="0"
       y="0"
       width="1"
       height="1"
       id="mask98"><image
         width="1"
         height="1.3333333"
         preserveAspectRatio="none"
         xlink:href="../../../DCCVT_3dv_img6.png"
         id="image98" /></mask><clipPath
       clipPathUnits="userSpaceOnUse"
       id="clipPath99"><path
         d="m 172.77,0.664 h 57.449 V 76.266 H 172.77 Z"
         transform="matrix(0.01740656,0,0,0.01322741,-3.0073415,-0.00878095)"
         id="path99" /></clipPath><clipPath
       clipPathUnits="userSpaceOnUse"
       id="clipPath100"><path
         d="M 0,0 H 231 V 85 H 0 Z"
         transform="matrix(1.3333333,0,0,1.3333333,400,325.33333)"
         id="path100" /></clipPath><clipPath
       clipPathUnits="userSpaceOnUse"
       id="clipPath101"><path
         d="m 5,78 h 43 v 6.258 H 5 Z"
         transform="translate(-4.7683051,-83.03193)"
         id="path101" /></clipPath><clipPath
       clipPathUnits="userSpaceOnUse"
       id="clipPath102"><path
         d="M 0,0 H 231 V 85 H 0 Z"
         transform="matrix(1.3333333,0,0,1.3333333,400,325.33333)"
         id="path102" /></clipPath><clipPath
       clipPathUnits="userSpaceOnUse"
       id="clipPath103"><path
         d="m 117,78 h 8 v 6.258 h -8 z"
         transform="translate(-117.24844,-83.03193)"
         id="path103" /></clipPath><clipPath
       clipPathUnits="userSpaceOnUse"
       id="clipPath104"><path
         d="M 0,0 H 231 V 85 H 0 Z"
         transform="matrix(1.3333333,0,0,1.3333333,400,325.33333)"
         id="path104" /></clipPath><clipPath
       clipPathUnits="userSpaceOnUse"
       id="clipPath105"><path
         d="M 0,0 H 231 V 85 H 0 Z"
         transform="translate(-126.46463,-83.03193)"
         id="path105" /></clipPath><clipPath
       clipPathUnits="userSpaceOnUse"
       id="clipPath106"><path
         d="m 130,78 h 35 v 6.258 h -35 z"
         transform="translate(-130.5455,-83.03193)"
         id="path106" /></clipPath><clipPath
       clipPathUnits="userSpaceOnUse"
       id="clipPath107"><path
         d="M 0,0 H 231 V 85 H 0 Z"
         transform="matrix(1.3333333,0,0,1.3333333,400,325.33333)"
         id="path107" /></clipPath><clipPath
       clipPathUnits="userSpaceOnUse"
       id="clipPath108"><path
         d="M 0,0 H 231 V 85 H 0 Z"
         transform="translate(-165.06765,-80.284642)"
         id="path108" /></clipPath><clipPath
       clipPathUnits="userSpaceOnUse"
       id="clipPath109"><path
         d="m 167,78 h 3 v 6.258 h -3 z"
         transform="translate(-167.2998,-83.03193)"
         id="path109" /></clipPath><clipPath
       clipPathUnits="userSpaceOnUse"
       id="clipPath110"><path
         d="M 0,0 H 231 V 85 H 0 Z"
         transform="matrix(1.3333333,0,0,1.3333333,400,325.33333)"
         id="path110" /></clipPath><clipPath
       clipPathUnits="userSpaceOnUse"
       id="clipPath111"><path
         d="m 178,78 h 34 v 6.258 h -34 z"
         transform="translate(-178.01426,-83.03193)"
         id="path111" /></clipPath><clipPath
       clipPathUnits="userSpaceOnUse"
       id="clipPath112"><path
         d="M 0,0 H 231 V 85 H 0 Z"
         transform="matrix(1.3333333,0,0,1.3333333,400,325.33333)"
         id="path112" /></clipPath><clipPath
       clipPathUnits="userSpaceOnUse"
       id="clipPath113"><path
         d="M 0,0 H 231 V 85 H 0 Z"
         transform="translate(-211.96583,-80.284642)"
         id="path113" /></clipPath><clipPath
       clipPathUnits="userSpaceOnUse"
       id="clipPath114"><path
         d="m 214,78 h 11 v 6.258 h -11 z"
         transform="translate(-214.198,-83.03193)"
         id="path114" /></clipPath><clipPath
       clipPathUnits="userSpaceOnUse"
       id="clipPath115"><path
         d="M 0,0 H 231 V 85 H 0 Z"
         transform="matrix(1.3333333,0,0,1.3333333,400,325.33333)"
         id="path115" /></clipPath><clipPath
       clipPathUnits="userSpaceOnUse"
       id="clipPath116"><path
         d="m 60,78 h 50 v 6.258 H 60 Z"
         transform="translate(-60.625262,-83.03193)"
         id="path116" /></clipPath><clipPath
       clipPathUnits="userSpaceOnUse"
       id="clipPath117"><path
         d="M 0,0 H 231 V 85 H 0 Z"
         transform="matrix(1.3333333,0,0,1.3333333,400,325.33333)"
         id="path117" /></clipPath><clipPath
       clipPathUnits="userSpaceOnUse"
       id="clipPath118"><path
         d="M 0,0 H 231 V 85 H 0 Z"
         transform="translate(-109.66182,-80.284642)"
         id="path118" /></clipPath><clipPath
       clipPathUnits="userSpaceOnUse"
       id="clipPath119"><path
         d="m 112,78 h 2 v 6.258 h -2 z"
         transform="translate(-111.89399,-83.03193)"
         id="path119" /></clipPath><clipPath
       clipPathUnits="userSpaceOnUse"
       id="clipPath120"><path
         d="M 0,0 H 231 V 85 H 0 Z"
         transform="matrix(1.3333333,0,0,1.3333333,400,325.33333)"
         id="path120" /></clipPath><mask
       maskUnits="userSpaceOnUse"
       x="0"
       y="0"
       width="1"
       height="1"
       id="mask92-7"><image
         width="1"
         height="1.3333333"
         preserveAspectRatio="none"
         xlink:href="../../../DCCVT_3dv_img0.png"
         id="image92-5" /></mask><clipPath
       clipPathUnits="userSpaceOnUse"
       id="clipPath93-3"><path
         d="M 0.422,0.664 H 57.871 V 76.266 H 0.422 Z"
         transform="matrix(0.01740654,0,0,0.01322741,-0.00733829,-0.00878035)"
         id="path93-5" /></clipPath><clipPath
       clipPathUnits="userSpaceOnUse"
       id="clipPath94-6"><path
         d="M 0,0 H 231 V 85 H 0 Z"
         transform="matrix(1.3333333,0,0,1.3333333,400,325.33333)"
         id="path94-2" /></clipPath><mask
       maskUnits="userSpaceOnUse"
       x="0"
       y="0"
       width="1"
       height="1"
       id="mask94-9"><image
         width="1"
         height="1.3333333"
         preserveAspectRatio="none"
         xlink:href="../../../DCCVT_3dv_img2.png"
         id="image94-1" /></mask><clipPath
       clipPathUnits="userSpaceOnUse"
       id="clipPath95-2"><path
         d="M 57.871,0.664 H 115.32 V 76.266 H 57.871 Z"
         transform="matrix(0.01740655,0,0,0.01322741,-1.0073395,-0.00878095)"
         id="path95-7" /></clipPath><clipPath
       clipPathUnits="userSpaceOnUse"
       id="clipPath96-0"><path
         d="M 0,0 H 231 V 85 H 0 Z"
         transform="matrix(1.3333333,0,0,1.3333333,400,325.33333)"
         id="path96-9" /></clipPath><mask
       maskUnits="userSpaceOnUse"
       x="0"
       y="0"
       width="1"
       height="1"
       id="mask96-3"><image
         width="1"
         height="1.3333333"
         preserveAspectRatio="none"
         xlink:href="../../../DCCVT_3dv_img4.png"
         id="image96-6" /></mask><clipPath
       clipPathUnits="userSpaceOnUse"
       id="clipPath97-0"><path
         d="m 115.32,0.664 h 57.449 V 76.266 H 115.32 Z"
         transform="matrix(0.01740654,0,0,0.0132274,-2.0073375,-0.00877975)"
         id="path97-6" /></clipPath><clipPath
       clipPathUnits="userSpaceOnUse"
       id="clipPath98-2"><path
         d="M 0,0 H 231 V 85 H 0 Z"
         transform="matrix(1.3333333,0,0,1.3333333,400,325.33333)"
         id="path98-6" /></clipPath><mask
       maskUnits="userSpaceOnUse"
       x="0"
       y="0"
       width="1"
       height="1"
       id="mask98-1"><image
         width="1"
         height="1.3333333"
         preserveAspectRatio="none"
         xlink:href="../../../DCCVT_3dv_img6.png"
         id="image98-8" /></mask><clipPath
       clipPathUnits="userSpaceOnUse"
       id="clipPath99-7"><path
         d="m 172.77,0.664 h 57.449 V 76.266 H 172.77 Z"
         transform="matrix(0.01740656,0,0,0.01322741,-3.0073415,-0.00878095)"
         id="path99-9" /></clipPath><clipPath
       clipPathUnits="userSpaceOnUse"
       id="clipPath100-2"><path
         d="M 0,0 H 231 V 85 H 0 Z"
         transform="matrix(1.3333333,0,0,1.3333333,400,325.33333)"
         id="path100-0" /></clipPath><clipPath
       clipPathUnits="userSpaceOnUse"
       id="clipPath101-2"><path
         d="m 5,78 h 43 v 6.258 H 5 Z"
         transform="translate(-4.7683051,-83.03193)"
         id="path101-3" /></clipPath><clipPath
       clipPathUnits="userSpaceOnUse"
       id="clipPath102-7"><path
         d="M 0,0 H 231 V 85 H 0 Z"
         transform="matrix(1.3333333,0,0,1.3333333,400,325.33333)"
         id="path102-5" /></clipPath><clipPath
       clipPathUnits="userSpaceOnUse"
       id="clipPath103-9"><path
         d="m 117,78 h 8 v 6.258 h -8 z"
         transform="translate(-117.24844,-83.03193)"
         id="path103-2" /></clipPath><clipPath
       clipPathUnits="userSpaceOnUse"
       id="clipPath104-2"><path
         d="M 0,0 H 231 V 85 H 0 Z"
         transform="matrix(1.3333333,0,0,1.3333333,400,325.33333)"
         id="path104-8" /></clipPath><clipPath
       clipPathUnits="userSpaceOnUse"
       id="clipPath105-9"><path
         d="M 0,0 H 231 V 85 H 0 Z"
         transform="translate(-126.46463,-83.03193)"
         id="path105-7" /></clipPath><clipPath
       clipPathUnits="userSpaceOnUse"
       id="clipPath106-3"><path
         d="m 130,78 h 35 v 6.258 h -35 z"
         transform="translate(-130.5455,-83.03193)"
         id="path106-6" /></clipPath><clipPath
       clipPathUnits="userSpaceOnUse"
       id="clipPath107-1"><path
         d="M 0,0 H 231 V 85 H 0 Z"
         transform="matrix(1.3333333,0,0,1.3333333,400,325.33333)"
         id="path107-2" /></clipPath><clipPath
       clipPathUnits="userSpaceOnUse"
       id="clipPath108-9"><path
         d="M 0,0 H 231 V 85 H 0 Z"
         transform="translate(-165.06765,-80.284642)"
         id="path108-3" /></clipPath><clipPath
       clipPathUnits="userSpaceOnUse"
       id="clipPath109-1"><path
         d="m 167,78 h 3 v 6.258 h -3 z"
         transform="translate(-167.2998,-83.03193)"
         id="path109-9" /></clipPath><clipPath
       clipPathUnits="userSpaceOnUse"
       id="clipPath110-4"><path
         d="M 0,0 H 231 V 85 H 0 Z"
         transform="matrix(1.3333333,0,0,1.3333333,400,325.33333)"
         id="path110-7" /></clipPath><clipPath
       clipPathUnits="userSpaceOnUse"
       id="clipPath111-8"><path
         d="m 178,78 h 34 v 6.258 h -34 z"
         transform="translate(-178.01426,-83.03193)"
         id="path111-4" /></clipPath><clipPath
       clipPathUnits="userSpaceOnUse"
       id="clipPath112-5"><path
         d="M 0,0 H 231 V 85 H 0 Z"
         transform="matrix(1.3333333,0,0,1.3333333,400,325.33333)"
         id="path112-0" /></clipPath><clipPath
       clipPathUnits="userSpaceOnUse"
       id="clipPath113-3"><path
         d="M 0,0 H 231 V 85 H 0 Z"
         transform="translate(-211.96583,-80.284642)"
         id="path113-6" /></clipPath><clipPath
       clipPathUnits="userSpaceOnUse"
       id="clipPath114-1"><path
         d="m 214,78 h 11 v 6.258 h -11 z"
         transform="translate(-214.198,-83.03193)"
         id="path114-0" /></clipPath><clipPath
       clipPathUnits="userSpaceOnUse"
       id="clipPath115-6"><path
         d="M 0,0 H 231 V 85 H 0 Z"
         transform="matrix(1.3333333,0,0,1.3333333,400,325.33333)"
         id="path115-3" /></clipPath><clipPath
       clipPathUnits="userSpaceOnUse"
       id="clipPath116-2"><path
         d="m 60,78 h 50 v 6.258 H 60 Z"
         transform="translate(-60.625262,-83.03193)"
         id="path116-0" /></clipPath><clipPath
       clipPathUnits="userSpaceOnUse"
       id="clipPath117-6"><path
         d="M 0,0 H 231 V 85 H 0 Z"
         transform="matrix(1.3333333,0,0,1.3333333,400,325.33333)"
         id="path117-1" /></clipPath><clipPath
       clipPathUnits="userSpaceOnUse"
       id="clipPath118-5"><path
         d="M 0,0 H 231 V 85 H 0 Z"
         transform="translate(-109.66182,-80.284642)"
         id="path118-5" /></clipPath><clipPath
       clipPathUnits="userSpaceOnUse"
       id="clipPath119-4"><path
         d="m 112,78 h 2 v 6.258 h -2 z"
         transform="translate(-111.89399,-83.03193)"
         id="path119-7" /></clipPath><clipPath
       clipPathUnits="userSpaceOnUse"
       id="clipPath120-6"><path
         d="M 0,0 H 231 V 85 H 0 Z"
         transform="matrix(1.3333333,0,0,1.3333333,400,325.33333)"
         id="path120-5" /></clipPath></defs><g
     inkscape:label="Layer 1"
     inkscape:groupmode="layer"
     id="layer1"
     transform="translate(-56.912514,-52.044684)"><text
       xml:space="preserve"
       style="font-style:normal;font-variant:normal;font-weight:normal;font-stretch:normal;font-size:3.52778px;font-family:'Times New Roman';-inkscape-font-specification:'Times New Roman, ';text-align:start;writing-mode:lr-tb;direction:ltr;text-anchor:start;fill:#000000;stroke-width:0.264583"
       x="141.79932"
       y="90.659592"
       id="text1-3"><tspan
         sodipodi:role="line"
         id="tspan1-5"
         style="font-size:3.52778px;text-align:center;text-anchor:middle;stroke-width:0.264583"
         x="141.79932"
         y="90.659592">CD: 0.5770 F1: 0.933</tspan></text><text
       xml:space="preserve"
       style="font-style:normal;font-variant:normal;font-weight:normal;font-stretch:normal;font-size:3.52778px;font-family:'Times New Roman';-inkscape-font-specification:'Times New Roman, ';text-align:start;writing-mode:lr-tb;direction:ltr;text-anchor:start;fill:#000000;stroke-width:0.264583"
       x="107.80446"
       y="90.659592"
       id="text1-2"><tspan
         sodipodi:role="line"
         id="tspan1-7"
         style="font-size:3.52778px;text-align:center;text-anchor:middle;stroke-width:0.264583"
         x="107.80446"
         y="90.659592">CD: 0.678 F1: 0.952</tspan></text><text
       xml:space="preserve"
       style="font-style:normal;font-variant:normal;font-weight:normal;font-stretch:normal;font-size:3.52778px;font-family:'Times New Roman';-inkscape-font-specification:'Times New Roman, ';text-align:start;writing-mode:lr-tb;direction:ltr;text-anchor:start;fill:#000000;stroke-width:0.264583"
       x="73.925873"
       y="90.659592"
       id="text1-0"><tspan
         sodipodi:role="line"
         id="tspan1-6"
         style="font-size:3.52778px;text-align:center;text-anchor:middle;stroke-width:0.264583"
         x="73.925873"
         y="90.659592">CD: 2.141 F1: 0.925</tspan></text><text
       xml:space="preserve"
       style="font-size:3.52778px;font-family:'Times New Roman';-inkscape-font-specification:'Times New Roman, ';text-align:center;writing-mode:lr-tb;direction:ltr;text-anchor:middle;fill:#000000;stroke-width:0.264583"
       x="175.62019"
       y="54.494148"
       id="text10"><tspan
         sodipodi:role="line"
         id="tspan10"
         style="font-size:3.52778px;stroke-width:0.264583"
         x="175.62019"
         y="54.494148">GT</tspan></text><text
       xml:space="preserve"
       style="font-size:3.52778px;font-family:'Times New Roman';-inkscape-font-specification:'Times New Roman, ';text-align:center;writing-mode:lr-tb;direction:ltr;text-anchor:middle;fill:#000000;stroke-width:0.264583"
       x="107.71833"
       y="54.494148"
       id="text11"><tspan
         sodipodi:role="line"
         style="font-size:3.52778px;stroke-width:0.264583"
         x="107.71833"
         y="54.494148"
         id="tspan15">(b) Hybrid</tspan></text><text
       xml:space="preserve"
       style="font-size:3.52778px;font-family:'Times New Roman';-inkscape-font-specification:'Times New Roman, ';text-align:center;writing-mode:lr-tb;direction:ltr;text-anchor:middle;fill:#000000;stroke-width:0.264583"
       x="73.858696"
       y="54.494148"
       id="text12"><tspan
         sodipodi:role="line"
         style="font-size:3.52778px;stroke-width:0.264583"
         x="73.858696"
         y="54.494148"
         id="tspan16">(a) Barycentric</tspan></text><text
       xml:space="preserve"
       style="font-size:3.52778px;font-family:'Times New Roman';-inkscape-font-specification:'Times New Roman, ';text-align:center;writing-mode:lr-tb;direction:ltr;text-anchor:middle;fill:#000000;stroke-width:0.264583"
       x="141.64171"
       y="54.494152"
       id="text12-3"><tspan
         sodipodi:role="line"
         style="font-size:3.52778px;stroke-width:0.264583"
         x="141.64171"
         y="54.494152"
         id="tspan14">(c) Robust</tspan></text><image
       width="33.92165"
       height="33.92165"
       preserveAspectRatio="none"
       xlink:href="../../Kyushu_experiments/outputs/aug20_barycentric/unconverged_441708_b32_NU/DCCVT_10_final_intDCCVT_cvt101_sdfsmooth101.png"
       id="image1"
       x="90.83416"
       y="54.494152" /><image
       width="33.921646"
       height="33.92165"
       preserveAspectRatio="none"
       xlink:href="../../Kyushu_experiments/outputs/aug20_barycentric/unconverged_441708_b32_NU/DCCVT_10_final_intDCCVT_cvt102_sdfsmooth102.png"
       id="image1-6"
       x="56.912514"
       y="54.494152" /><image
       width="33.92165"
       height="33.92165"
       preserveAspectRatio="none"
       xlink:href="../../Kyushu_experiments/outputs/aug18_NU_MAGA/aug18_ups/unconv/ours_unconverged_441708_b32_ups.png"
       id="image1-2"
       x="124.75581"
       y="54.494152" /><image
       width="33.92165"
       height="33.92165"
       preserveAspectRatio="none"
       xlink:href="../../Kyushu_experiments/mesh/thingi32_gt_image/441708_rendered.png"
       id="image1-3"
       x="158.67746"
       y="54.494152" /><text
       xml:space="preserve"
       transform="matrix(0.26458333,0,0,0.26458333,56.912514,52.292566)"
       id="text1"
       style="font-size:9.33333px;font-family:'Times New Roman';-inkscape-font-specification:'Times New Roman, ';text-align:center;writing-mode:lr-tb;direction:ltr;white-space:pre;shape-inside:url(#rect1);display:inline;fill:#000000" /></g></svg>
